# xmcd
#
# Track frame offsets:
#	150
#	661
#	19161
#	30835
#
# Disc length: 807 seconds
#
# Revision: 0
# Processed by: cddbd v1.5PL3 Copyright (c) Steve Scherf et al.
# Submitted via: dBpowerAMP V4.0
#
DISCID=1c032504
DTITLE=¾G¨q¤å - Wonder Women AVCD
DYEAR=2003
DGENRE=
TTITLE0=DATA
TTITLE1=DATA
TTITLE2=DATA
TTITLE3=¯«©_¤k«L Wonder Clue Mix BMP145
EXTD=
EXTT0=
EXTT1=
EXTT2=
EXTT3=
PLAYORDER=
